<svg width="64" height="75" viewBox="0 0 64 75" fill="none" xmlns="http://www.w3.org/2000/svg">
<g filter="url(#filter0_d_7_6)">
<path d="M61.3744 37.446C61.1644 37.5247 61.0201 37.551 60.9413 37.5247C60.8888 37.4722 60.8232 37.4197 60.7445 37.3672C60.692 37.0523 60.7051 36.7242 60.7838 36.3829C60.8888 36.0155 60.8888 35.6611 60.7838 35.3199C60.7313 35.1886 60.6788 35.0837 60.6263 35.0049C60.6001 34.9262 60.5607 34.8343 60.5082 34.7293C60.377 34.7818 60.1932 34.8081 59.957 34.8081C59.747 34.8081 59.5502 34.8081 59.3664 34.8081C59.3139 34.8081 59.1827 34.7687 58.9727 34.6899C58.789 34.5849 58.6708 34.5062 58.6184 34.4537C58.5396 34.3487 58.5002 34.2306 58.5002 34.0993C58.5265 33.9681 58.5527 33.8237 58.579 33.6663C58.3165 33.5088 58.1328 33.4431 58.0278 33.4694C57.949 33.4694 57.8572 33.4563 57.7522 33.43C57.4897 33.3513 57.2666 33.3382 57.0828 33.3906C56.9253 33.4169 56.8072 33.4038 56.7285 33.3513C56.6235 33.325 56.5316 33.2594 56.4529 33.1544C56.4004 33.0232 56.3873 32.9051 56.4135 32.8001C56.466 32.5376 56.6366 32.4195 56.9253 32.4457C57.2403 32.472 57.4897 32.5507 57.6734 32.6819C57.8834 32.6557 58.1328 32.6688 58.4215 32.7213C58.7102 32.7476 58.9989 32.7607 59.2877 32.7607C59.3927 32.7607 59.4845 32.7607 59.5633 32.7607C59.642 32.7344 59.7208 32.7344 59.7995 32.7607C60.0095 32.7869 60.1539 32.8788 60.2326 33.0363C60.3114 33.1938 60.4032 33.3382 60.5082 33.4694C60.692 33.5481 60.8494 33.6531 60.9807 33.7844C61.1119 33.8894 61.2563 34.0337 61.4138 34.2175C61.7025 34.4799 61.7944 34.8212 61.6894 35.2411C61.5844 35.6086 61.4925 35.9761 61.4138 36.3436C61.335 36.6848 61.3219 37.0523 61.3744 37.446ZM17.6712 31.3827C17.1462 31.4877 16.6475 31.5402 16.1751 31.5402C15.7026 31.5402 15.217 31.5402 14.7183 31.5402C14.6133 31.6976 14.5477 31.9208 14.5214 32.2095C14.4952 32.4982 14.4033 32.7344 14.2458 32.9182C14.1671 32.9969 14.0621 33.1019 13.9308 33.2332C13.7996 33.3644 13.7077 33.43 13.6552 33.43C13.3665 33.22 13.2221 32.9838 13.2221 32.7213C13.2484 32.4326 13.2746 32.1832 13.3009 31.9732C13.3271 31.842 13.3534 31.7239 13.3796 31.6189C13.4321 31.4877 13.4846 31.3827 13.5371 31.3039C13.5634 31.2514 13.6027 31.1989 13.6552 31.1464C13.734 31.0939 13.8127 31.0283 13.8915 30.9496C13.9702 30.8183 14.0358 30.7002 14.0883 30.5952C14.1408 30.4902 14.2327 30.4246 14.3639 30.3984C14.6527 30.4246 14.8233 30.4246 14.8758 30.3984C14.9545 30.3459 15.0464 30.3196 15.1514 30.3196C15.2826 30.2934 15.4007 30.3196 15.5057 30.3984C15.637 30.4509 15.7682 30.4771 15.8995 30.4771C15.9782 30.4771 16.0569 30.464 16.1357 30.4377C16.2407 30.4115 16.3325 30.3984 16.4113 30.3984C16.49 30.4509 16.5819 30.4771 16.6869 30.4771C16.8181 30.4771 16.9363 30.4771 17.0412 30.4771C17.1725 30.4509 17.2906 30.4377 17.3956 30.4377C17.5268 30.4115 17.6187 30.4115 17.6712 30.4377C17.8024 30.5427 17.8418 30.6871 17.7893 30.8708C17.7368 31.0283 17.6975 31.1989 17.6712 31.3827ZM34.0501 44.3361C34.1026 44.4674 34.1419 44.5986 34.1682 44.7299C34.2207 44.8349 34.2732 44.953 34.3257 45.0842C34.3519 45.1892 34.4044 45.2942 34.4832 45.3992C34.5619 45.4779 34.6275 45.5698 34.68 45.6748C34.8638 45.9898 35.0212 46.3047 35.1525 46.6197C35.31 46.9085 35.4937 47.1972 35.7037 47.4859C35.8087 47.7746 35.9137 48.0634 36.0187 48.3521C36.1237 48.6408 36.2549 48.8902 36.4124 49.1002C36.4124 49.2577 36.4386 49.402 36.4911 49.5333C36.5699 49.6383 36.6355 49.7564 36.688 49.8876C36.7667 50.1239 36.8455 50.347 36.9242 50.557C37.0292 50.7669 37.1605 50.9769 37.318 51.1869C37.7642 50.5045 38.1973 49.8089 38.6172 49.1002C39.0372 48.3652 39.4309 47.604 39.7984 46.8166C39.9297 46.7903 40.074 46.751 40.2315 46.6985C40.389 46.6197 40.5465 46.5541 40.704 46.5016C40.7827 46.4491 40.8352 46.3966 40.8615 46.3441C40.914 46.2654 40.9796 46.1866 41.0583 46.1079C41.2946 45.8454 41.4389 45.6617 41.4914 45.5567C41.5439 45.4517 41.5045 45.3073 41.3733 45.1236C41.4258 44.8349 41.5308 44.5461 41.6883 44.2574C41.8458 43.9687 42.0033 43.7193 42.1607 43.5093C42.2395 43.3781 42.3051 43.26 42.3576 43.155C42.4101 43.05 42.4757 42.945 42.5545 42.84C42.607 42.7088 42.6726 42.6038 42.7513 42.525C42.8301 42.42 42.8957 42.315 42.9482 42.21C43.0007 42.0788 43.0663 41.9607 43.1451 41.8557C43.2238 41.7507 43.3025 41.6326 43.3813 41.5013C43.4338 41.3963 43.4863 41.2913 43.5388 41.1864C43.5913 41.0814 43.6438 40.9632 43.6963 40.832C43.8275 40.622 43.9456 40.4383 44.0506 40.2808C44.1819 40.0971 44.3 39.9002 44.405 39.6902C44.4575 39.5852 44.4968 39.4933 44.5231 39.4146C44.5756 39.3096 44.6281 39.2046 44.6806 39.0996C44.8118 38.8634 44.9693 38.6272 45.153 38.3909C45.363 38.1284 45.5336 37.8791 45.6649 37.6429C45.7961 37.2754 45.9274 36.9998 46.0586 36.816C46.1373 36.6848 46.2161 36.5667 46.2948 36.4617C46.3998 36.3567 46.4786 36.2386 46.5311 36.1073C46.6361 35.8449 46.7017 35.7005 46.7279 35.6742C46.7804 35.648 46.8198 35.6086 46.846 35.5561C47.0823 35.1624 47.2398 34.8999 47.3185 34.7687C47.3973 34.6374 47.476 34.4931 47.5547 34.3356C47.6597 34.2831 47.791 34.1518 47.9485 33.9419C48.0797 33.9156 48.1978 33.8762 48.3028 33.8237C48.4341 33.745 48.5653 33.6663 48.6965 33.5875C48.959 33.7188 49.2609 33.7712 49.6021 33.745C49.9433 33.7188 50.2452 33.7712 50.5077 33.9025C50.7177 33.85 50.9276 33.85 51.1376 33.9025C51.3476 33.955 51.5576 33.9812 51.7676 33.9812C51.9513 33.9812 52.1088 33.9681 52.24 33.9419C52.3975 33.9156 52.555 33.8894 52.7125 33.8631C52.9225 33.8631 53.1325 33.8762 53.3425 33.9025C53.5525 33.9287 53.7887 33.9419 54.0512 33.9419C54.2874 33.9681 54.5236 33.9681 54.7599 33.9419C54.9961 33.9156 55.2586 33.9156 55.5473 33.9419C56.2035 33.9419 56.886 33.9812 57.5947 34.06C57.6997 34.4275 57.8834 34.7687 58.1459 35.0837C58.2509 35.1362 58.3296 35.2018 58.3821 35.2805C58.4346 35.333 58.5134 35.3855 58.6184 35.438C58.7758 35.4905 58.9202 35.5168 59.0514 35.5168C59.2089 35.5168 59.3402 35.5561 59.4452 35.6349C59.5764 35.7399 59.642 35.858 59.642 35.9892C59.6683 36.1205 59.747 36.2517 59.8783 36.3829C59.852 36.9079 59.8389 37.4197 59.8389 37.9185C59.8389 38.4172 59.8126 38.9159 59.7601 39.4146C59.7339 39.7821 59.6945 40.1496 59.642 40.517C59.6158 40.8845 59.6027 41.252 59.6027 41.6195C59.6552 42.0132 59.6552 42.315 59.6027 42.525C59.5764 42.7088 59.5633 42.9056 59.5633 43.1156C59.537 43.4306 59.3664 43.6931 59.0514 43.903C58.7627 44.113 58.5659 44.323 58.4609 44.533C58.3559 44.7692 58.3559 45.0186 58.4609 45.2811C58.5659 45.5436 58.6446 45.7929 58.6971 46.0291C58.9333 46.2391 59.0908 46.4622 59.1696 46.6985C59.2746 46.9347 59.3271 47.2103 59.3271 47.5253C59.3271 47.709 59.3139 47.8928 59.2877 48.0765C59.2877 48.234 59.2614 48.3652 59.2089 48.4702C59.2352 48.9952 59.2352 49.507 59.2089 50.0057C59.1827 50.4782 59.1564 50.9769 59.1302 51.5019C59.1039 51.7119 59.0777 51.935 59.0514 52.1712C59.0252 52.3812 59.0121 52.5912 59.0121 52.8012C58.9858 53.1424 58.9858 53.4705 59.0121 53.7855C59.0383 54.1005 59.0252 54.4417 58.9727 54.8092C58.6577 55.2816 58.4477 55.6491 58.3427 55.9116C58.264 56.1741 58.2246 56.4628 58.2246 56.7778C58.2246 57.0665 58.3165 57.2896 58.5002 57.4471C58.7102 57.5783 58.8415 57.7883 58.894 58.0771C58.8415 58.7595 58.8021 59.4945 58.7758 60.2819C58.7496 61.0431 58.7102 61.7387 58.6577 62.3686C58.3952 62.4999 58.1196 62.4999 57.8309 62.3686C57.6209 62.2374 57.4897 62.1718 57.4372 62.1718C57.4109 62.1718 57.3847 62.1586 57.3584 62.1324C57.2797 62.0799 57.2141 62.0274 57.1616 61.9749C57.1091 61.9487 57.0435 61.9224 56.9647 61.8962C56.7547 61.8699 56.571 61.9355 56.4135 62.093C56.256 62.2768 56.0985 62.4211 55.941 62.5261C55.7311 62.5786 55.5604 62.6311 55.4292 62.6836C54.983 62.6574 54.4974 62.6311 53.9724 62.6049C53.4737 62.6049 53.0012 62.5786 52.555 62.5261C52.3713 62.4999 52.1875 62.4999 52.0038 62.5261C51.8201 62.5786 51.6232 62.6049 51.4132 62.6049C51.177 62.6049 50.9276 62.6049 50.6652 62.6049C50.4289 62.6311 50.1664 62.6311 49.8777 62.6049C49.799 62.6049 49.7202 62.5917 49.6415 62.5655C49.589 62.5655 49.5234 62.5655 49.4446 62.5655C49.1559 62.5917 48.8015 62.6442 48.3816 62.723C47.9878 62.8017 47.6204 62.7361 47.2791 62.5261C47.0167 62.4999 46.8854 62.4343 46.8854 62.3293C46.8854 62.2505 46.8592 62.1718 46.8067 62.093C46.7804 62.0143 46.7411 61.9355 46.6886 61.8568C46.6623 61.778 46.6361 61.6993 46.6098 61.6206C46.5836 61.5156 46.5704 61.4237 46.5704 61.345C46.5704 61.24 46.5442 61.135 46.4917 61.03C46.4392 60.8725 46.3342 60.7675 46.1767 60.715C46.0192 60.6625 45.8749 60.5838 45.7436 60.4788C45.6911 60.085 45.6911 59.6651 45.7436 59.2189C45.7961 58.7464 45.888 58.3395 46.0192 57.9983C45.9667 57.4996 45.9536 57.0271 45.9799 56.5809C46.0324 56.1084 46.0586 55.6097 46.0586 55.0848C46.0586 54.1923 46.1242 53.3393 46.2555 52.5256C46.3867 51.7119 46.4654 50.8063 46.4917 49.8089C46.5179 49.4677 46.5442 49.1264 46.5704 48.7852C46.5967 48.444 46.6098 48.1027 46.6098 47.7615C46.3998 48.129 46.1898 48.4965 45.9799 48.8639C45.7961 49.2052 45.5993 49.5595 45.3893 49.927C45.2055 50.1895 45.0087 50.452 44.7987 50.7144C44.615 50.9507 44.4575 51.2132 44.3262 51.5019C44.2737 51.7381 44.195 51.9219 44.09 52.0531C43.985 52.1581 43.9063 52.3156 43.8538 52.5256C43.67 52.788 43.5519 52.9718 43.4994 53.0768C43.4469 53.1818 43.3944 53.2999 43.3419 53.4311C43.2369 53.5361 43.1319 53.5492 43.0269 53.4705C42.9482 53.3918 42.8432 53.3655 42.712 53.3918C42.4757 53.6542 42.3445 53.8249 42.3182 53.9036C42.3182 53.9561 42.292 54.0873 42.2395 54.2973C42.1345 54.7173 42.1345 54.9798 42.2395 55.0848C42.3445 55.1898 42.397 55.2947 42.397 55.3997C42.397 55.5047 42.3445 55.636 42.2395 55.7935C42.1345 55.951 42.0558 56.0953 42.0033 56.2266C41.6358 56.7778 41.2814 57.3946 40.9402 58.0771C40.7302 58.4445 40.5727 58.7989 40.4677 59.1401C40.3103 59.2713 40.1921 59.4288 40.1134 59.6126C40.0609 59.7701 39.9953 59.9276 39.9165 60.085C39.7853 60.3213 39.6409 60.5575 39.4834 60.7937C39.3259 61.0037 39.1816 61.2137 39.0503 61.4237C38.8666 61.6862 38.7616 61.8043 38.7354 61.778C38.7091 61.7256 38.6829 61.6862 38.6566 61.6599C38.4729 61.8437 38.2235 61.9355 37.9085 61.9355C37.6198 61.9355 37.4098 61.8305 37.2786 61.6206C37.0686 61.6468 36.8717 61.6862 36.688 61.7387C36.5305 61.7649 36.3468 61.8043 36.1368 61.8568C36.0056 61.9093 35.8481 61.9749 35.6643 62.0537C35.5068 62.1586 35.3362 62.198 35.1525 62.1718C34.89 62.0405 34.7194 61.9749 34.6406 61.9749C34.5619 61.9749 34.4963 61.9618 34.4438 61.9355C34.2338 61.8043 34.0894 61.6337 34.0107 61.4237C33.9582 61.1875 33.8794 60.925 33.7745 60.6363C33.722 60.4525 33.6432 60.2819 33.5382 60.1244C33.4332 59.9669 33.3414 59.7832 33.2626 59.5732C33.0526 59.0482 32.8295 58.5233 32.5933 57.9983C32.3833 57.4471 32.1733 56.909 31.9633 56.384C31.9108 56.3053 31.8583 56.2266 31.8058 56.1478C31.7533 56.0691 31.7009 55.9772 31.6484 55.8722C31.5959 55.7672 31.5434 55.5835 31.4909 55.321C31.4121 55.1373 31.3203 54.9666 31.2153 54.8092C31.1103 54.6517 31.0315 54.4811 30.979 54.2973C30.9265 54.1398 30.8872 53.9692 30.8609 53.7855C30.8609 53.6017 30.8347 53.418 30.7822 53.2343C30.7297 53.0243 30.664 52.8405 30.5853 52.6831C30.5328 52.4993 30.5066 52.3287 30.5066 52.1712C30.4541 51.515 30.2441 51.0425 29.8766 50.7538C29.5354 50.4388 29.2466 50.137 29.0104 49.8483C28.8004 49.3233 28.6167 48.7983 28.4592 48.2734C28.328 47.7222 28.1573 47.1972 27.9474 46.6985C27.8949 46.751 27.8686 46.8166 27.8686 46.8953C27.8686 46.9741 27.8555 47.0659 27.8292 47.1709C27.8292 47.4597 27.803 47.7353 27.7505 47.9978C27.698 48.234 27.6586 48.4702 27.6324 48.7065C27.6061 48.9689 27.5799 49.2445 27.5536 49.5333C27.5274 49.822 27.5011 50.1107 27.4749 50.3995C27.4486 50.6882 27.4355 50.9638 27.4355 51.2263C27.4355 51.4888 27.4093 51.7512 27.3568 52.0137C27.3305 52.3025 27.3174 52.6043 27.3174 52.9193C27.3174 53.2343 27.2912 53.523 27.2387 53.7855C27.1862 53.943 27.1074 54.1005 27.0024 54.2579C26.9237 54.4154 26.8318 54.5729 26.7268 54.7304C26.6218 54.8617 26.5431 55.0191 26.4906 55.2029C26.4381 55.3604 26.4512 55.5441 26.53 55.7541C26.5562 55.8066 26.6087 55.8722 26.6874 55.951C26.7662 56.0034 26.8318 56.0691 26.8843 56.1478C27.0418 56.489 27.1205 56.7646 27.1205 56.9746C27.1205 57.1846 27.1205 57.434 27.1205 57.7227C27.1468 58.1427 27.1599 58.5758 27.1599 59.022C27.1862 59.4682 27.173 59.9144 27.1205 60.3606C26.7268 60.5444 26.4512 60.7019 26.2937 60.8331C26.1362 60.9644 25.9787 61.0956 25.8213 61.2268C25.6375 61.2006 25.4538 61.2006 25.27 61.2268C25.0863 61.2531 24.9157 61.2662 24.7582 61.2662C24.1807 61.2662 23.577 61.24 22.9471 61.1875C22.3171 61.1087 21.6872 61.0169 21.0572 60.9119C20.8472 60.8594 20.7029 60.82 20.6241 60.7937C20.4929 60.7937 20.3748 60.8069 20.2698 60.8331C20.191 60.8594 20.086 60.8725 19.9548 60.8725C19.7186 60.8725 19.4823 60.8594 19.2461 60.8331C19.0361 60.8069 18.813 60.7675 18.5768 60.715C18.3405 60.6887 18.1174 60.6887 17.9074 60.715C17.6975 60.715 17.4875 60.7019 17.2775 60.6756C16.9363 60.6494 16.6082 60.6231 16.2932 60.5969C16.0044 60.5444 15.7288 60.4263 15.4664 60.2425C15.3876 60.0588 15.2432 59.9276 15.0333 59.8488C14.8495 59.7438 14.6527 59.6651 14.4427 59.6126C14.2852 59.3501 14.1671 59.1664 14.0883 59.0614C14.0096 58.9564 13.944 58.8514 13.8915 58.7464C13.8652 58.4839 13.8783 58.2345 13.9308 57.9983C14.0096 57.7621 14.0358 57.5258 14.0096 57.2896C13.9833 57.0796 13.9571 56.8565 13.9308 56.6203C13.9308 56.3578 13.9308 56.1216 13.9308 55.9116C13.9046 55.7016 13.9046 55.5047 13.9308 55.321C13.9571 55.111 13.9833 54.901 14.0096 54.691C14.0096 54.2973 13.9965 53.9298 13.9702 53.5886C13.9702 53.2474 13.9965 52.893 14.049 52.5256C14.049 52.4731 14.0621 52.3943 14.0883 52.2893C14.1408 52.1581 14.1933 52.0662 14.2458 52.0137C14.5345 51.6725 14.692 51.3575 14.7183 51.0688C14.7445 50.7801 14.8233 50.5176 14.9545 50.2813C15.0333 49.5464 14.9283 48.9427 14.6395 48.4702C14.587 48.3652 14.5345 48.2865 14.482 48.234C14.4296 48.1815 14.3902 48.1159 14.3639 48.0371C14.3377 47.9059 14.3377 47.7222 14.3639 47.4859C14.3902 47.2497 14.4033 47.0528 14.4033 46.8953C14.4033 46.5804 14.4296 46.3179 14.482 46.1079C14.5608 45.8717 14.6527 45.6354 14.7577 45.3992C14.8102 45.2679 14.8364 45.1498 14.8364 45.0448C14.8626 44.9398 14.8889 44.8349 14.9151 44.7299C14.9676 44.5986 15.0201 44.4543 15.0726 44.2968C15.1251 44.113 15.112 43.9293 15.0333 43.7456C15.007 43.6668 14.9676 43.6012 14.9151 43.5487C14.8626 43.4962 14.8102 43.4437 14.7577 43.3912C14.6789 43.155 14.6395 42.9187 14.6395 42.6825C14.6658 42.42 14.692 42.1707 14.7183 41.9344C14.7708 41.5145 14.797 41.0682 14.797 40.5958C14.797 40.1233 14.8233 39.6771 14.8758 39.2571C14.9545 38.5484 14.9939 37.8397 14.9939 37.131C14.9939 36.6061 14.9808 36.0548 14.9545 35.4774C14.9283 34.8737 14.9414 34.27 14.9939 33.6663C15.0201 33.5088 15.0464 33.3644 15.0726 33.2332C15.1251 33.0757 15.1514 32.9182 15.1514 32.7607C15.4664 32.5245 15.7945 32.367 16.1357 32.2882C16.5032 32.1832 16.805 32.2357 17.0412 32.4457C17.2512 32.4982 17.435 32.5113 17.5925 32.4851C17.7499 32.4588 17.9074 32.4851 18.0649 32.5638C18.2749 32.4588 18.4324 32.3407 18.5374 32.2095C18.6686 32.052 18.7999 31.9076 18.9311 31.7764C19.1149 31.7501 19.2986 31.7633 19.4823 31.8158C19.6661 31.842 19.8629 31.8551 20.0729 31.8551C20.2566 31.8551 20.4141 31.842 20.5454 31.8158C20.7029 31.7895 20.8604 31.7895 21.0178 31.8158C21.1491 31.8158 21.2672 31.842 21.3722 31.8945C21.4772 31.9208 21.5953 31.9601 21.7265 32.0126C22.094 32.0651 22.4484 32.0782 22.7896 32.052C23.1308 32.0257 23.4589 32.0389 23.7739 32.0914C24.0626 32.1964 24.2595 32.2357 24.3645 32.2095C24.4957 32.1832 24.6401 32.2095 24.7976 32.2882C25.0601 32.2357 25.3094 32.262 25.5457 32.367C25.7819 32.472 26.0312 32.5245 26.2937 32.5245C26.6612 32.472 26.9762 32.4982 27.2387 32.6032C27.5274 32.7082 27.8292 32.8001 28.1442 32.8788C28.5117 33.115 28.7742 33.4431 28.9317 33.8631C29.0892 34.2831 29.2335 34.7162 29.3648 35.1624C29.496 35.2936 29.601 35.438 29.6797 35.5955C29.7847 35.753 29.9029 35.9105 30.0341 36.068C30.1916 36.3567 30.3491 36.6585 30.5066 36.9735C30.664 37.2623 30.8347 37.5641 31.0184 37.8791C31.1759 38.1678 31.3203 38.509 31.4515 38.9028C31.609 39.2702 31.7665 39.6246 31.924 39.9658C32.0814 40.1758 32.1471 40.3202 32.1208 40.3989C32.1208 40.4777 32.1471 40.5433 32.1996 40.5958C32.3046 40.8583 32.4096 41.1076 32.5145 41.3438C32.6458 41.5538 32.7639 41.7638 32.8689 41.9738C32.9214 42.0525 32.987 42.1444 33.0658 42.2494C33.1445 42.3282 33.1839 42.3938 33.1839 42.4463C33.1839 42.5775 33.1314 42.7219 33.0264 42.8794C32.9214 43.0106 32.8951 43.1812 32.9476 43.3912C32.9476 43.4437 32.9739 43.5093 33.0264 43.5881C33.1051 43.6668 33.1707 43.7324 33.2232 43.7849C33.3282 43.9162 33.4464 44.0212 33.5776 44.0999C33.7088 44.1524 33.8663 44.2311 34.0501 44.3361ZM22.6715 34.06C22.514 33.9812 22.304 33.9025 22.0415 33.8237C21.779 33.745 21.5559 33.7581 21.3722 33.8631C21.2672 33.7844 21.1622 33.7581 21.0572 33.7844C20.9522 33.8106 20.8341 33.8369 20.7029 33.8631C20.6504 34.0731 20.6504 34.2306 20.7029 34.3356C20.7554 34.4406 20.8079 34.5456 20.8604 34.6506C21.0441 34.7556 21.241 34.7949 21.4509 34.7687C21.6609 34.7424 21.884 34.7424 22.1203 34.7687C22.2515 34.7687 22.3696 34.7818 22.4746 34.8081C22.5796 34.8081 22.6846 34.7818 22.7896 34.7293C22.8421 34.5981 22.8421 34.4931 22.7896 34.4143C22.7371 34.3093 22.6977 34.1912 22.6715 34.06ZM17.6712 35.1624C17.7499 35.0574 17.9074 34.9655 18.1437 34.8868C18.4062 34.8081 18.6161 34.7556 18.7736 34.7293C18.9311 34.7031 19.0624 34.6768 19.1673 34.6506C19.2986 34.6243 19.3905 34.5587 19.443 34.4537C19.4955 34.375 19.4823 34.2437 19.4036 34.06C19.3248 33.8762 19.2461 33.7844 19.1673 33.7844C18.8261 33.9156 18.4586 34.0206 18.0649 34.0993C17.6975 34.1781 17.33 34.1518 16.9625 34.0206C16.7525 34.6768 16.6082 35.2411 16.5294 35.7136C16.4507 36.1861 16.49 36.6454 16.6475 37.0916C16.9625 37.1704 17.1725 37.1573 17.2775 37.0523C17.3825 36.921 17.4481 36.7504 17.4743 36.5404C17.5006 36.3304 17.5006 36.0942 17.4743 35.8317C17.4743 35.5692 17.54 35.3461 17.6712 35.1624ZM57.5947 37.9185C57.7784 37.9185 57.8965 37.8528 57.949 37.7216C58.0015 37.5641 58.0015 37.4066 57.949 37.2491C57.9228 37.0916 57.844 36.9604 57.7128 36.8554C57.6078 36.7242 57.4766 36.6848 57.3191 36.7373C57.1616 36.7898 57.0303 36.8948 56.9253 37.0523C56.8204 37.2098 56.7679 37.3804 56.7679 37.5641C56.9778 37.7478 57.1222 37.866 57.2009 37.9185C57.3059 37.9447 57.4372 37.9447 57.5947 37.9185ZM48.3816 43.8243C48.3028 43.8243 48.1716 43.8768 47.9878 43.9818C47.8304 44.0868 47.7385 44.1655 47.7122 44.218C47.6335 44.5068 47.6991 44.7167 47.9091 44.848C48.1191 44.953 48.2766 45.0711 48.3816 45.2023C48.644 45.4123 48.7753 45.7667 48.7753 46.2654C48.749 46.5541 48.7097 46.8297 48.6572 47.0922C48.6309 47.3547 48.644 47.6434 48.6965 47.9584C48.959 47.9584 49.1165 47.9321 49.169 47.8796C49.2478 47.8271 49.3003 47.7746 49.3265 47.7222C49.379 47.4072 49.4052 47.1447 49.4052 46.9347C49.4052 46.6985 49.4315 46.436 49.484 46.1473C49.5365 45.701 49.5759 45.2811 49.6021 44.8873C49.6284 44.4936 49.5102 44.1524 49.2478 43.8637C49.1165 43.9424 48.9853 43.9555 48.854 43.903C48.7228 43.8243 48.5653 43.798 48.3816 43.8243ZM49.3265 49.4545C49.169 49.402 48.9853 49.4283 48.7753 49.5333C48.5653 49.6383 48.4866 49.8089 48.5391 50.0451C48.854 50.2289 49.0903 50.2289 49.2478 50.0451C49.4315 49.8614 49.4577 49.6645 49.3265 49.4545ZM34.7588 58.0771C34.68 58.2083 34.6406 58.392 34.6406 58.6283C34.6669 58.8383 34.7063 59.0614 34.7588 59.2976C34.8113 59.5076 34.89 59.6913 34.995 59.8488C35.1262 60.0063 35.2706 60.085 35.4281 60.085C35.5856 60.085 35.7037 60.0063 35.7824 59.8488C35.8612 59.6913 35.9399 59.547 36.0187 59.4157C35.8349 59.1532 35.6774 58.8645 35.5462 58.5495C35.4412 58.2345 35.1787 58.0771 34.7588 58.0771ZM23.0652 58.9432C22.9077 59.127 22.934 59.2582 23.1439 59.337C23.3539 59.4157 23.5245 59.4813 23.6558 59.5338C23.9445 59.6651 24.1414 59.7044 24.2464 59.6519C24.3776 59.5994 24.4957 59.5994 24.6007 59.6519C25.2307 59.5732 25.5194 59.2189 25.4669 58.5889C25.4669 58.4577 25.4407 58.3264 25.3882 58.1952C25.3357 58.0639 25.3094 57.9327 25.3094 57.8014C25.2569 57.5915 25.1388 57.539 24.9551 57.644C24.7976 57.749 24.6795 57.8408 24.6007 57.9196C24.4957 58.0771 24.4301 58.2608 24.4039 58.4708C24.3776 58.6545 24.2989 58.812 24.1676 58.9432C24.0101 58.9957 23.8133 58.9826 23.577 58.9039C23.3671 58.7989 23.1964 58.812 23.0652 58.9432ZM20.0335 58.4708C20.0073 58.602 19.9942 58.7464 19.9942 58.9039C19.9942 59.0351 20.0467 59.1401 20.1517 59.2189C20.2304 59.2451 20.3223 59.2451 20.4273 59.2189C20.5323 59.1926 20.6372 59.2057 20.7422 59.2582C20.821 59.127 20.8866 59.0089 20.9391 58.9039C21.0178 58.7989 21.0572 58.6414 21.0572 58.4314C20.8997 58.4052 20.7291 58.392 20.5454 58.392C20.3616 58.3658 20.191 58.392 20.0335 58.4708ZM38.1448 59.7307C38.171 59.5207 38.1185 59.4288 37.9873 59.4551C37.856 59.4551 37.7248 59.4813 37.5936 59.5338C37.5411 59.6388 37.4754 59.7044 37.3967 59.7307C37.318 59.7307 37.2786 59.7963 37.2786 59.9276C37.4098 60.0325 37.5804 60.0588 37.7904 60.0063C38.0004 59.9538 38.1185 59.8619 38.1448 59.7307ZM33.2626 37.446C33.4464 37.4985 33.5776 37.5641 33.6563 37.6429C33.7613 37.7216 33.8794 37.7872 34.0107 37.8397C34.1157 38.0497 34.1813 38.2597 34.2076 38.4697C34.2338 38.6534 34.1813 38.8371 34.0501 39.0209C34.1288 39.3096 34.2469 39.6246 34.4044 39.9658C34.5619 40.2808 34.7063 40.5826 34.8375 40.8714C34.89 41.0026 34.9819 41.147 35.1131 41.3045C35.2444 41.4357 35.31 41.567 35.31 41.6982C35.31 41.9344 35.1394 42.1182 34.7981 42.2494C34.4832 42.3544 34.2338 42.3019 34.0501 42.0919C33.8401 41.8032 33.7088 41.4488 33.6563 41.0289C33.6038 40.6089 33.512 40.2152 33.3807 39.8477C33.2757 39.7165 33.197 39.5852 33.1445 39.454C33.1183 39.2965 33.0658 39.139 32.987 38.9815C32.9345 38.8765 32.8689 38.7846 32.7901 38.7059C32.7114 38.6009 32.6458 38.4959 32.5933 38.3909C32.5408 38.2597 32.4883 38.1416 32.4358 38.0366C32.3833 37.9316 32.3308 37.8266 32.2783 37.7216C32.1996 37.5379 32.1077 37.3541 32.0027 37.1704C31.8977 36.9866 31.7796 36.8029 31.6484 36.6192C31.4909 36.3567 31.3334 36.0155 31.1759 35.5955C31.1234 35.4905 31.0709 35.3855 31.0184 35.2805C30.9659 35.1755 30.9003 35.0705 30.8215 34.9655C30.6378 34.6768 30.4541 34.375 30.2703 34.06C30.0866 33.745 29.8897 33.4431 29.6797 33.1544C29.7585 33.0494 29.8372 32.9576 29.916 32.8788C29.9947 32.7738 30.1391 32.7476 30.3491 32.8001C30.6378 32.9051 30.874 33.1282 31.0578 33.4694C31.2678 33.7844 31.4777 34.0337 31.6877 34.2175C31.8977 34.6899 32.1077 35.1624 32.3177 35.6349C32.5539 36.1073 32.8164 36.5273 33.1051 36.8948C33.1314 36.9998 33.1576 37.0916 33.1839 37.1704C33.2101 37.2491 33.2364 37.341 33.2626 37.446ZM59.4452 62.5261C59.4977 62.7099 59.537 62.8805 59.5633 63.038C59.5895 63.1954 59.5895 63.3398 59.5633 63.4711C59.537 63.7073 59.4058 63.9304 59.1696 64.1404C58.9596 64.3504 58.7233 64.4685 58.4609 64.4947C58.3821 64.521 58.3034 64.521 58.2246 64.4947C58.1721 64.4685 58.1065 64.4554 58.0278 64.4554C57.739 64.4029 57.4372 64.4029 57.1222 64.4554C56.8072 64.5079 56.4922 64.521 56.1773 64.4947C56.0198 64.311 55.9279 64.101 55.9017 63.8648C55.8754 63.6548 55.9804 63.4711 56.2166 63.3136C56.3479 63.2348 56.5185 63.1954 56.7285 63.1954C56.9385 63.1954 57.1485 63.2217 57.3584 63.2742C57.7784 63.4317 58.0934 63.4973 58.3034 63.4711C58.5134 63.4448 58.684 63.3792 58.8152 63.2742C58.9202 63.143 58.9989 62.9723 59.0514 62.7624C59.1039 62.5524 59.2352 62.4736 59.4452 62.5261ZM21.4116 63.1167C21.0966 62.9592 20.8866 62.8542 20.7816 62.8017C20.6766 62.7492 20.5585 62.6836 20.4273 62.6049C20.3485 62.5786 20.2566 62.5655 20.1517 62.5655C20.0467 62.5655 19.9679 62.5392 19.9154 62.4867C19.7579 62.3818 19.7186 62.2243 19.7973 62.0143C19.876 61.8043 19.9942 61.6862 20.1517 61.6599C20.5454 61.7124 20.8735 61.7387 21.136 61.7387C21.4247 61.7124 21.7134 61.7124 22.0022 61.7387C22.2646 61.8437 22.4352 61.9749 22.514 62.1324C22.5927 62.3161 22.619 62.4736 22.5927 62.6049C22.5402 62.8936 22.3959 63.0642 22.1596 63.1167C21.9234 63.1692 21.674 63.1692 21.4116 63.1167ZM23.3802 62.9198C23.3277 62.8411 23.3014 62.723 23.3014 62.5655C23.3277 62.408 23.3671 62.303 23.4196 62.2505C23.5508 62.1193 23.6952 62.0405 23.8526 62.0143C24.0364 62.0143 24.2201 62.0274 24.4039 62.0537C24.7713 62.1061 25.1519 62.1061 25.5457 62.0537C25.9394 62.0012 26.2937 62.0012 26.6087 62.0537C26.7662 62.0274 26.8843 61.9749 26.9631 61.8962C27.0418 61.8437 27.1205 61.778 27.1993 61.6993C27.278 61.6206 27.3568 61.5549 27.4355 61.5024C27.5405 61.4499 27.6586 61.4368 27.7899 61.4631C27.9474 61.4893 28.0917 61.5812 28.223 61.7387C28.3542 61.8962 28.3805 62.0537 28.3017 62.2111C28.2492 62.3424 28.1442 62.4736 27.9867 62.6049C27.8292 62.7624 27.6849 62.8542 27.5536 62.8805C27.3699 62.933 27.1337 62.933 26.8449 62.8805C26.5825 62.8542 26.3331 62.8542 26.0969 62.8805C25.6244 62.933 25.2832 62.9461 25.0732 62.9198C24.8895 62.9198 24.6926 62.933 24.4826 62.9592C24.2726 62.9592 24.0758 62.9723 23.892 62.9986C23.7345 63.0248 23.5639 62.9986 23.3802 62.9198ZM41.7277 60.2032C41.8589 60.4131 41.8458 60.6363 41.6883 60.8725C41.557 61.0825 41.4652 61.2925 41.4127 61.5024C41.3339 61.6337 41.2421 61.7649 41.1371 61.8962C41.0583 62.0274 40.9665 62.1718 40.8615 62.3293C40.809 62.4343 40.7565 62.5392 40.704 62.6442C40.6515 62.7755 40.599 62.8805 40.5465 62.9592C40.4152 63.0905 40.2709 63.2086 40.1134 63.3136C39.9821 63.4448 39.8772 63.5892 39.7984 63.7467C39.5097 63.7992 39.1422 63.8779 38.696 63.9829C38.2498 64.0879 37.8429 64.1141 37.4754 64.0616C37.2655 64.0091 37.0949 63.891 36.9636 63.7073C36.8586 63.5236 36.8455 63.3004 36.9242 63.038C37.2917 62.828 37.6723 62.7624 38.066 62.8411C38.4598 62.9198 38.8404 62.8936 39.2078 62.7624C39.3653 62.6836 39.5228 62.5655 39.6803 62.408C39.8378 62.2505 40.0084 62.0799 40.1921 61.8962C40.4021 61.7124 40.5465 61.4762 40.6252 61.1875C40.6515 61.03 40.6515 60.8856 40.6252 60.7544C40.6252 60.6231 40.6777 60.505 40.7827 60.4C40.8352 60.3475 40.914 60.3213 41.019 60.3213C41.1502 60.295 41.2683 60.2557 41.3733 60.2032H41.7277Z" fill="#E0E7F8"/>
</g>
<g filter="url(#filter1_d_7_6)">
<path d="M8.97687 12.9196C9.00312 13.1296 8.95063 13.2871 8.81939 13.3921C8.71439 13.4708 8.58315 13.5102 8.42566 13.5102C8.26817 13.5102 8.12381 13.4577 7.99257 13.3527C7.86133 13.2477 7.80883 13.1165 7.83508 12.959C7.94007 12.8277 8.12381 12.749 8.38629 12.7227C8.67502 12.6702 8.87188 12.7359 8.97687 12.9196ZM2.75606 18.4317C2.70356 18.5105 2.61169 18.5892 2.48045 18.6679C2.37546 18.7204 2.25734 18.6811 2.1261 18.5498C1.99486 18.4448 1.90299 18.1692 1.8505 17.723C1.82425 17.2768 1.81112 16.9093 1.81112 16.6206C1.81112 16.1744 1.81112 15.6494 1.81112 15.0457C1.83737 14.4157 1.91612 13.917 2.04736 13.5496C2.1261 13.5233 2.20485 13.4839 2.28359 13.4314C2.36234 13.3789 2.4542 13.3396 2.5592 13.3133C2.84793 13.2871 3.03166 13.2608 3.11041 13.2346C3.18915 13.1821 3.2679 13.1427 3.34664 13.1165C3.45163 13.1165 3.5435 13.1296 3.62225 13.1558C3.70099 13.1558 3.79286 13.1558 3.89785 13.1558C4.00285 13.1296 4.10784 13.1165 4.21283 13.1165C4.31782 13.0902 4.42282 13.064 4.52781 13.0377C4.79029 13.0377 4.97403 13.0246 5.07902 12.9983C5.21026 12.9721 5.31525 12.9458 5.394 12.9196C5.49899 12.8933 5.59086 12.8671 5.66961 12.8409C5.87959 12.8146 6.07645 12.854 6.26019 12.959C6.47017 13.0377 6.60142 13.1427 6.65391 13.2739C6.68016 13.4839 6.60142 13.6677 6.41768 13.8252C6.26019 13.9826 6.1027 14.0745 5.94521 14.1008C5.70898 14.1533 5.51212 14.1401 5.35463 14.0614C5.19714 13.9826 5.02652 13.9301 4.84279 13.9039C4.6853 13.8777 4.52781 13.8908 4.37032 13.9433C4.23908 13.9695 4.08159 13.9695 3.89785 13.9433C3.74036 14.0483 3.55663 14.1139 3.34664 14.1401C3.13666 14.1664 2.96604 14.2451 2.8348 14.3764C2.72981 14.6651 2.70356 14.9801 2.75606 15.3213C2.8348 15.6363 2.80855 15.8988 2.67731 16.1087C2.72981 16.555 2.71669 16.9487 2.63794 17.2899C2.58544 17.6311 2.62482 18.0117 2.75606 18.4317ZM34.8051 43.1181C34.6738 43.0394 34.5295 43.0131 34.372 43.0394C34.2145 43.0919 34.057 43.1312 33.8995 43.1575C33.742 43.1837 33.5845 43.1837 33.427 43.1575C33.2958 43.1575 33.1514 43.1575 32.994 43.1575C32.679 43.1837 32.3771 43.2231 32.0884 43.2756C31.7997 43.3281 31.5241 43.2756 31.2616 43.1181C30.6579 42.6981 30.1723 42.2257 29.8048 41.7007C29.4636 41.1758 29.0699 40.6639 28.6236 40.1652C28.5186 39.9552 28.4924 39.7584 28.5449 39.5746C28.6236 39.3909 28.6368 39.194 28.5843 38.984C28.558 38.8528 28.4924 38.6953 28.3874 38.5116C28.3087 38.3016 28.2299 38.1572 28.1512 38.0785C27.9937 37.8685 27.7706 37.711 27.4818 37.606C27.1931 37.501 26.9306 37.3829 26.6944 37.2517C26.4844 37.0154 26.3138 36.7661 26.1826 36.5036C26.0776 36.2148 25.9201 35.9655 25.7101 35.7555C25.5788 35.5455 25.4214 35.3487 25.2376 35.1649C25.0801 34.9549 24.9358 34.7449 24.8045 34.535C24.6995 34.3512 24.6077 34.1806 24.5289 34.0231C24.4502 33.8394 24.3452 33.6557 24.2139 33.4719C23.7677 33.3407 23.3215 33.3144 22.8753 33.3932C22.4291 33.4457 21.996 33.4588 21.576 33.4325C21.3923 33.4063 21.2216 33.4063 21.0642 33.4325C20.7754 33.4588 20.4867 33.4588 20.198 33.4325C19.9092 33.38 19.6205 33.3538 19.3318 33.3538C19.0693 33.3275 18.8068 33.3275 18.5443 33.3538C18.3081 33.3538 18.085 33.4194 17.875 33.5507C17.77 33.7869 17.7044 33.8919 17.6781 33.8656C17.6519 33.8394 17.5994 33.8263 17.5207 33.8263C17.3894 34.1675 17.35 34.5218 17.4025 34.8893C17.455 35.2568 17.5075 35.6505 17.56 36.0705C17.6388 36.5429 17.6388 37.0679 17.56 37.6454C17.4813 38.2228 17.4682 38.7872 17.5207 39.3384C17.5207 39.4696 17.5207 39.614 17.5207 39.7715C17.5469 39.929 17.56 40.0733 17.56 40.2046C17.56 40.4408 17.5207 40.6639 17.4419 40.8739C17.3894 41.0839 17.35 41.2939 17.3238 41.5039C17.1401 41.5301 16.8907 41.6351 16.5757 41.8188C16.5232 41.8713 16.4445 41.9238 16.3395 41.9763C16.2607 42.0288 16.1951 42.0813 16.1426 42.1338C16.0114 42.2651 15.9195 42.4094 15.867 42.5669C15.8145 42.7244 15.7358 42.8556 15.6308 42.9606C15.4208 43.1706 15.1583 43.2625 14.8433 43.2362C14.5284 43.21 14.1871 43.2231 13.8197 43.2756C13.7409 43.2756 13.649 43.2756 13.5441 43.2756C13.4653 43.3019 13.3866 43.315 13.3078 43.315C13.0191 43.3675 12.7304 43.3806 12.4416 43.3544C12.1529 43.3544 11.8642 43.3544 11.5754 43.3544C11.4442 43.3544 11.2998 43.3675 11.1423 43.3937C11.0111 43.4462 10.8799 43.4725 10.7486 43.4725C10.6699 43.4725 10.5911 43.4593 10.5124 43.4331C10.4336 43.4331 10.3549 43.4331 10.2762 43.4331C10.1974 43.4331 10.1055 43.4462 10.0006 43.4725C9.92181 43.4987 9.84306 43.5118 9.76432 43.5118C9.60683 43.5118 9.43622 43.5118 9.25248 43.5118C9.09499 43.5381 8.95063 43.5512 8.81939 43.5512C8.6094 43.5775 8.38629 43.5906 8.15006 43.5906C7.94007 43.6168 7.71696 43.6037 7.48073 43.5512C7.34949 43.5512 7.21825 43.525 7.08701 43.4725C6.98201 43.42 6.8639 43.3675 6.73266 43.315C6.60142 43.2625 6.47017 43.2362 6.33893 43.2362C6.23394 43.2625 6.12895 43.2625 6.02396 43.2362C5.70898 43.1312 5.45962 42.9738 5.27588 42.7638C5.09215 42.5275 4.85591 42.3438 4.56718 42.2126C4.51469 42.0551 4.48844 41.9107 4.48844 41.7795C4.48844 41.6482 4.47531 41.5039 4.44907 41.3464C4.50156 41.2939 4.52781 41.2282 4.52781 41.1495C4.55406 41.0445 4.59343 40.9526 4.64593 40.8739C4.64593 40.3489 4.54093 39.9158 4.33095 39.5746C4.2522 39.4959 4.17346 39.4302 4.09471 39.3778C4.01597 39.299 3.96347 39.194 3.93723 39.0628C3.91098 38.8528 3.9241 38.6297 3.9766 38.3934C4.02909 38.1572 4.08159 37.921 4.13409 37.6847C4.18658 37.4485 4.21283 37.2123 4.21283 36.976C4.21283 36.7398 4.23908 36.5167 4.29158 36.3067C4.39657 35.9655 4.42282 35.7161 4.37032 35.5586C4.34407 35.4012 4.31782 35.283 4.29158 35.2043C4.26533 35.0993 4.21283 35.0206 4.13409 34.9681C4.05534 34.8893 4.00285 34.8106 3.9766 34.7318C3.95035 34.6531 3.93723 34.5743 3.93723 34.4956C3.96347 34.3906 3.96347 34.2987 3.93723 34.22C3.93723 34.01 3.93723 33.8 3.93723 33.59C3.96347 33.38 3.96347 33.1832 3.93723 32.9994C3.91098 32.8157 3.87161 32.5664 3.81911 32.2514C3.79286 31.9364 3.80598 31.6739 3.85848 31.4639C3.88473 31.3589 3.93723 31.2671 4.01597 31.1883C4.12096 31.1096 4.21283 31.0308 4.29158 30.9521C4.39657 30.8733 4.47531 30.7815 4.52781 30.6765C4.58031 30.5452 4.59343 30.3746 4.56718 30.1646C4.51469 29.8759 4.40969 29.6003 4.2522 29.3378C3.96347 28.8654 3.79286 28.4585 3.74036 28.1173C3.68787 27.7761 3.6485 27.448 3.62225 27.133C3.596 26.8967 3.56975 26.6605 3.5435 26.4243C3.51726 26.188 3.50413 25.9518 3.50413 25.7156C3.45163 24.4294 3.43851 23.1826 3.46476 21.9752C3.51726 20.7416 3.5435 19.4554 3.5435 18.1167C3.596 17.5655 3.60912 17.0799 3.58288 16.66C3.55663 16.2137 3.58288 15.8463 3.66162 15.5575C3.76661 15.0851 4.09471 14.8095 4.64593 14.7307C4.85591 14.8095 5.11839 14.8751 5.43337 14.9276C5.74835 14.9801 6.06333 14.9407 6.37831 14.8095C6.4833 14.7832 6.56204 14.7307 6.61454 14.652C6.66704 14.547 6.74578 14.4682 6.85077 14.4157C7.192 14.2845 7.44136 14.1795 7.59885 14.1008C7.75633 14.022 7.91382 13.9958 8.07131 14.022C8.46504 14.1533 8.71439 14.1926 8.81939 14.1401C8.92438 14.0876 9.0425 14.0614 9.17374 14.0614C9.27873 14.0351 9.38372 14.0351 9.48871 14.0614C9.59371 14.0614 9.6987 14.0614 9.80369 14.0614C9.93493 14.0351 10.053 14.022 10.158 14.022C10.263 13.9958 10.368 13.9826 10.473 13.9826C10.578 13.9826 10.6699 13.9958 10.7486 14.022C10.8274 14.0483 10.9192 14.0614 11.0242 14.0614C11.1555 14.0614 11.2998 14.0614 11.4573 14.0614C11.6148 14.0351 11.7592 14.022 11.8904 14.022C11.9954 14.022 12.0873 14.0351 12.166 14.0614C12.271 14.0876 12.376 14.1008 12.481 14.1008C12.691 14.0745 12.8879 14.0483 13.0716 14.022C13.2816 13.9695 13.4784 13.917 13.6622 13.8645C13.8459 13.9695 14.0428 13.9958 14.2528 13.9433C14.4627 13.8908 14.6859 13.8777 14.9221 13.9039C15.2633 14.0089 15.5127 14.0483 15.6702 14.022C15.8539 13.9958 16.0245 13.9826 16.182 13.9826C16.4707 13.9826 16.7463 14.0089 17.0088 14.0614C17.2975 14.0876 17.5732 14.0876 17.8356 14.0614C17.9669 14.0614 18.0981 14.0614 18.2294 14.0614C18.3606 14.0351 18.4918 14.022 18.6231 14.022C18.7543 14.022 18.8856 14.0351 19.0168 14.0614C19.148 14.0614 19.2793 14.0614 19.4105 14.0614C19.6468 14.0351 19.883 14.0089 20.1192 13.9826C20.3555 13.9301 20.5917 13.8908 20.8279 13.8645C21.3266 13.8383 21.8385 13.8383 22.3634 13.8645C22.9147 13.8645 23.4527 13.8383 23.9777 13.7858C24.0827 13.7595 24.1877 13.7464 24.2927 13.7464C24.3977 13.7202 24.5027 13.6939 24.6077 13.6677C24.7914 13.6677 25.0145 13.6808 25.277 13.707C25.5395 13.707 25.802 13.707 26.0644 13.707C26.3532 13.707 26.5369 13.7595 26.6156 13.8645C26.6944 13.9433 26.7731 14.0089 26.8519 14.0614C27.0881 14.2451 27.3768 14.4026 27.7181 14.5339C28.0593 14.6651 28.4136 14.6782 28.7811 14.5732C28.9649 14.5207 29.1486 14.442 29.3323 14.337C29.5423 14.2058 29.7392 14.0876 29.9229 13.9826C30.1329 13.8777 30.356 13.8383 30.5922 13.8645C30.8285 13.8908 31.0647 13.9039 31.3009 13.9039C31.3797 13.9039 31.4584 13.8908 31.5372 13.8645C31.6159 13.8383 31.6947 13.8252 31.7734 13.8252C31.9309 13.8252 32.0884 13.8383 32.2459 13.8645C32.4034 13.8908 32.5609 13.917 32.7183 13.9433C32.7971 13.9433 32.8758 13.9433 32.9546 13.9433C33.0333 13.917 33.1121 13.917 33.1908 13.9433C33.6633 13.9958 34.1226 14.1139 34.5688 14.2976C35.0151 14.4814 35.435 14.6389 35.8288 14.7701C36.3537 15.2163 36.7606 15.6232 37.0493 15.9906C37.3643 16.3319 37.6661 16.6862 37.9549 17.0537C38.1911 17.4737 38.4011 17.9199 38.5848 18.3923C38.7948 18.8648 38.926 19.4029 38.9785 20.0066C39.031 20.899 39.0573 21.7652 39.0573 22.6052C39.0835 23.4189 39.0967 24.2719 39.0967 25.1644C39.0967 25.3481 39.0835 25.5187 39.0573 25.6762C39.0573 25.8074 39.0704 25.9387 39.0967 26.0699C39.1229 26.3587 39.1098 26.6211 39.0573 26.8574C39.031 27.0936 38.9917 27.3561 38.9392 27.6448C38.9129 27.8286 38.8998 28.0123 38.8998 28.196C38.926 28.3535 38.9129 28.511 38.8604 28.6685C38.6767 29.141 38.5454 29.4822 38.4667 29.6922C38.4142 29.9022 38.3223 30.099 38.1911 30.2828C38.1123 30.414 37.9811 30.5321 37.7974 30.6371C37.6136 30.7159 37.4693 30.7552 37.3643 30.7552C37.023 30.7815 36.8262 30.834 36.7737 30.9127C36.7474 30.9915 36.7081 31.0702 36.6556 31.149C36.6031 31.2539 36.5506 31.3327 36.4981 31.3852C36.4718 31.4377 36.4456 31.5164 36.4193 31.6214C36.2356 31.7527 36.0519 31.8839 35.8681 32.0151C35.6844 32.1464 35.5138 32.2907 35.3563 32.4482C34.8313 32.527 34.3457 32.632 33.8995 32.7632C33.4795 32.8945 33.0464 33.0257 32.6002 33.1569C32.7315 33.4719 32.9021 33.7606 33.1121 34.0231C33.3221 34.2856 33.4927 34.5612 33.6239 34.8499C33.9126 35.5324 34.2407 36.123 34.6082 36.6217C34.7132 36.8054 34.8313 36.9892 34.9626 37.1729C35.1201 37.3304 35.2644 37.4879 35.3957 37.6454L35.8681 38.3541C36.0256 38.5641 36.1569 38.774 36.2618 38.984C36.3668 39.1678 36.4718 39.3778 36.5768 39.614C36.6293 39.6927 36.6687 39.7715 36.6949 39.8502C36.7474 39.929 36.7737 40.0208 36.7737 40.1258C36.9312 40.4146 37.0887 40.7033 37.2462 40.992C37.4036 41.2807 37.5611 41.5695 37.7186 41.8582C37.8499 41.832 37.9549 41.8057 38.0336 41.7795C38.1123 41.7532 38.2173 41.7401 38.3486 41.7401C38.2961 41.7926 38.2173 41.832 38.1123 41.8582C38.0074 41.8845 37.9286 41.9369 37.8761 42.0157C37.8499 42.0944 37.8105 42.2126 37.758 42.37C37.7055 42.5013 37.6268 42.6194 37.5218 42.7244C37.3118 42.8556 37.1018 42.9344 36.8918 42.9606C36.6818 42.9869 36.4587 43 36.2225 43C35.9862 43 35.75 43 35.5138 43C35.2775 43 35.0413 43.0394 34.8051 43.1181ZM7.40198 17.3293C7.45448 17.2243 7.4676 17.0668 7.44136 16.8568C7.44136 16.6468 7.40198 16.5156 7.32324 16.4631C7.1395 16.3319 6.92952 16.3056 6.69328 16.3844C6.4833 16.4369 6.26019 16.45 6.02396 16.4237C5.52524 16.3975 5.23651 16.4762 5.15777 16.66C5.10527 16.8437 5.05277 17.0406 5.00028 17.2505C4.92153 17.513 4.86904 17.723 4.84279 17.8805C4.81654 18.038 4.82966 18.2217 4.88216 18.4317C4.93466 18.7204 4.97403 18.9567 5.00028 19.1404C5.05277 19.2979 5.18401 19.416 5.394 19.4948C5.52524 19.3373 5.59086 19.1273 5.59086 18.8648C5.61711 18.5761 5.66961 18.3267 5.74835 18.1167C5.87959 18.0117 6.01083 17.9461 6.14207 17.9199C6.29956 17.8674 6.45705 17.8018 6.61454 17.723C6.71953 17.6705 6.8639 17.618 7.04763 17.5655C7.23137 17.4868 7.34949 17.408 7.40198 17.3293ZM10.1187 16.6993C10.1449 16.4631 10.0137 16.2531 9.72495 16.0694C9.33123 16.0956 9.09499 16.1875 9.01625 16.345C8.96375 16.5025 8.92438 16.6862 8.89813 16.8962C9.02937 17.0274 9.25248 17.0931 9.56746 17.0931C9.88244 17.0668 10.0662 16.9356 10.1187 16.6993ZM11.103 41.8976C11.3392 41.7926 11.418 41.622 11.3392 41.3857C11.2867 41.1233 11.103 41.0051 10.788 41.0314C10.578 41.1626 10.4993 41.3464 10.5518 41.5826C10.6305 41.8188 10.8142 41.9238 11.103 41.8976ZM15.2764 40.7164C15.5127 40.4277 15.5652 40.1652 15.4339 39.929C15.3289 39.6927 15.1189 39.5877 14.804 39.614C14.6465 39.719 14.5152 39.8502 14.4102 40.0077C14.3315 40.1389 14.2396 40.2833 14.1346 40.4408C14.0296 40.572 13.8984 40.677 13.7409 40.7558C13.5834 40.8345 13.3734 40.8476 13.111 40.7952C13.006 40.9001 12.901 41.0051 12.796 41.1101C12.691 41.1889 12.6516 41.3464 12.6779 41.5826C12.7304 41.7138 12.8091 41.8057 12.9141 41.8582C13.0453 41.8845 13.1635 41.9238 13.2685 41.9763C13.3997 41.9238 13.5572 41.9107 13.7409 41.9369C13.9247 41.9369 14.0821 41.8845 14.2134 41.7795C14.2921 41.727 14.3709 41.6482 14.4496 41.5432C14.5546 41.412 14.6465 41.2939 14.7252 41.1889C14.8302 41.0839 14.9352 40.992 15.0402 40.9133C15.1452 40.8345 15.2239 40.7689 15.2764 40.7164ZM25.6313 26.818C25.7888 26.6343 25.9201 26.4112 26.0251 26.1487C26.1563 25.8862 26.235 25.6368 26.2613 25.4006C26.2875 25.1644 26.2875 24.9281 26.2613 24.6919C26.2613 24.4557 26.2875 24.2063 26.34 23.9438C26.3663 23.8388 26.4057 23.747 26.4582 23.6682C26.5369 23.5895 26.6025 23.5107 26.655 23.432C26.8125 23.1433 26.9044 22.8939 26.9306 22.6839C26.9569 22.3952 26.9175 22.1852 26.8125 22.054C26.7075 21.8965 26.6025 21.7521 26.4975 21.6209C26.445 21.5159 26.3925 21.424 26.34 21.3453C26.2875 21.2403 26.235 21.1615 26.1826 21.109C26.1563 20.899 26.1301 20.6891 26.1038 20.4791C26.1038 20.2428 26.0513 20.0328 25.9463 19.8491C25.7363 19.6916 25.4345 19.5473 25.0408 19.416C24.6733 19.2848 24.3189 19.2585 23.9777 19.3373C23.6365 19.4423 23.3084 19.4816 22.9934 19.4554C22.7047 19.4291 22.3766 19.4029 22.0091 19.3766C21.9303 19.3766 21.8516 19.3898 21.7729 19.416C21.7204 19.4423 21.6547 19.4554 21.576 19.4554C21.3135 19.5079 21.0379 19.521 20.7492 19.4948C20.4867 19.4685 20.2242 19.4423 19.9617 19.416C19.7517 19.4948 19.5286 19.5341 19.2924 19.5341C19.0562 19.5079 18.8068 19.4948 18.5443 19.4948C18.3081 19.4685 18.0719 19.4685 17.8356 19.4948C17.5994 19.521 17.4025 19.6129 17.245 19.7704C17.1663 19.9541 17.1401 20.1903 17.1663 20.4791C17.2188 20.7416 17.2188 21.004 17.1663 21.2665C17.0351 21.3453 16.9301 21.4371 16.8513 21.5421C16.7726 21.6209 16.7201 21.739 16.6938 21.8965C16.7988 22.2377 17.0088 22.4871 17.3238 22.6445C17.3763 22.8283 17.3894 23.0251 17.3632 23.2351C17.3632 23.4189 17.35 23.6157 17.3238 23.8257C17.3238 24.2457 17.35 24.6919 17.4025 25.1644C17.4813 25.6106 17.5075 26.0437 17.4813 26.4637C17.455 26.6736 17.4288 26.8967 17.4025 27.133C17.3763 27.343 17.4419 27.5136 17.5994 27.6448C17.8619 27.6973 18.0981 27.7236 18.3081 27.7236C18.5443 27.6973 18.7806 27.6842 19.0168 27.6842C19.2793 27.7367 19.5024 27.7629 19.6861 27.7629C19.7911 27.7367 19.8961 27.7104 20.0011 27.6842C20.1061 27.6317 20.2242 27.5923 20.3555 27.5661C20.5129 27.5661 20.6573 27.5792 20.7886 27.6054C20.946 27.6054 21.1167 27.6054 21.3004 27.6054C21.5891 27.5792 21.891 27.553 22.206 27.5267C22.5209 27.4742 22.849 27.5005 23.1903 27.6054C23.4002 27.553 23.5709 27.5398 23.7021 27.5661C23.8596 27.5923 24.0302 27.5792 24.2139 27.5267C24.6864 27.3955 25.0539 27.2248 25.3164 27.0149L25.6313 26.818ZM28.4268 28.6291C28.558 28.3404 28.6499 28.0254 28.7024 27.6842C28.7549 27.343 28.7811 26.9886 28.7811 26.6211C28.7286 26.5424 28.6761 26.4768 28.6236 26.4243C28.5711 26.3455 28.5186 26.2799 28.4661 26.2274C28.3349 26.5161 28.1905 26.8049 28.033 27.0936C27.9018 27.3823 27.7312 27.6317 27.5212 27.8417C27.4162 27.9729 27.285 28.0517 27.1275 28.0779C26.9962 28.1042 26.865 28.1829 26.7338 28.3141C26.4188 28.4716 26.2088 28.6029 26.1038 28.7079C25.9988 28.8129 25.9332 28.9572 25.9069 29.141C26.1169 29.2722 26.2875 29.4166 26.4188 29.5741C26.55 29.7315 26.7469 29.784 27.0094 29.7315C27.2981 29.6791 27.5737 29.5347 27.8362 29.2985C28.0987 29.036 28.2955 28.8129 28.4268 28.6291ZM28.8599 24.7313C28.9649 24.705 29.0436 24.6263 29.0961 24.495C29.1748 24.3638 29.2011 24.2194 29.1748 24.0619C29.1748 23.9045 29.1355 23.7732 29.0567 23.6682C29.0042 23.5632 28.8992 23.5107 28.7417 23.5107C28.6893 23.5632 28.5974 23.642 28.4661 23.747C28.3611 23.852 28.2824 23.9701 28.2299 24.1013C28.1774 24.2326 28.1643 24.3638 28.1905 24.495C28.243 24.6263 28.348 24.705 28.5055 24.7313H28.8599ZM39.2148 17.2112C39.1623 16.7387 39.0179 16.3581 38.7817 16.0694C38.5717 15.7544 38.3223 15.4525 38.0336 15.1638C38.0336 15.0326 37.9942 14.9145 37.9155 14.8095C37.863 14.6782 37.9155 14.5864 38.073 14.5339C38.4667 14.4814 38.7948 14.5864 39.0573 14.8488C39.346 15.1113 39.5954 15.4 39.8054 15.715C39.8578 15.8463 39.8841 15.9381 39.8841 15.9906C39.9103 16.0431 39.9497 16.135 40.0022 16.2662C40.0547 16.3187 40.0941 16.4106 40.1203 16.5418C40.1466 16.6468 40.1335 16.765 40.081 16.8962C40.0547 16.9749 39.976 17.0799 39.8447 17.2112C39.7397 17.3162 39.6479 17.3687 39.5691 17.3687L39.2148 17.2112ZM20.3161 20.361C20.2636 20.7022 20.093 20.899 19.8042 20.9515C19.5155 21.004 19.3055 21.1221 19.1743 21.3059C19.0693 21.9096 18.9118 22.3821 18.7018 22.7233C18.3606 22.592 18.1637 22.3952 18.1112 22.1327C18.085 21.844 18.0981 21.5684 18.1506 21.3059C18.2294 21.0172 18.3475 20.7809 18.505 20.5972C18.6625 20.3872 18.8724 20.2822 19.1349 20.2822C19.4236 20.3347 19.6599 20.3347 19.8436 20.2822C20.0274 20.2035 20.1848 20.2297 20.3161 20.361ZM40.6715 27.2511C40.6715 27.3823 40.6584 27.4873 40.6322 27.5661C40.6059 27.6448 40.5797 27.7367 40.5534 27.8417C40.5534 27.9204 40.5534 27.9992 40.5534 28.0779C40.5797 28.1304 40.5928 28.196 40.5928 28.2748C40.5665 28.4585 40.5272 28.6422 40.4747 28.826C40.4222 28.9835 40.3697 29.141 40.3172 29.2985C40.2909 29.7447 40.186 30.1384 40.0022 30.4796C39.8185 30.8208 39.6216 31.149 39.4116 31.4639C39.3329 31.4902 39.2541 31.5558 39.1754 31.6608C39.1229 31.7395 39.0442 31.8183 38.9392 31.897C38.8342 31.9495 38.7292 32.0151 38.6242 32.0939C38.5192 32.1464 38.4273 32.212 38.3486 32.2907C38.2961 32.3432 38.2436 32.4089 38.1911 32.4876C38.1648 32.5401 38.1255 32.5926 38.073 32.6451C37.9942 32.6976 37.8761 32.7632 37.7186 32.842C37.5874 32.8945 37.4955 32.9076 37.443 32.8813C37.2068 32.5926 37.128 32.4089 37.2068 32.3301C37.2855 32.2514 37.3511 32.1464 37.4036 32.0151C37.4561 31.9101 37.4955 31.8183 37.5218 31.7395C37.548 31.6345 37.5874 31.5427 37.6399 31.4639C37.9286 31.3589 38.1911 31.2408 38.4273 31.1096C38.6636 30.9521 38.8998 30.8077 39.136 30.6765C39.241 30.4665 39.3591 30.2434 39.4904 30.0072C39.6216 29.7709 39.7004 29.5084 39.7266 29.2197C39.7529 29.1672 39.7529 29.1016 39.7266 29.0228C39.7266 28.9179 39.7266 28.826 39.7266 28.7472C39.7791 28.5373 39.8316 28.3141 39.8841 28.0779C39.9366 27.8154 39.976 27.5923 40.0022 27.4086C40.0285 27.2511 40.0285 27.0936 40.0022 26.9361C39.976 26.7786 39.9628 26.6211 39.9628 26.4637C39.9628 26.2012 39.9891 25.9518 40.0416 25.7156C40.0941 25.4793 40.1466 25.23 40.1991 24.9675C40.4091 24.9675 40.5141 25.0331 40.5141 25.1644C40.5403 25.2694 40.5665 25.4268 40.5928 25.6368C40.6453 25.8993 40.6715 26.1618 40.6715 26.4243C40.6715 26.6605 40.6715 26.9361 40.6715 27.2511ZM19.6861 34.2987C19.8174 34.2987 19.9617 34.2987 20.1192 34.2987C20.303 34.2725 20.4473 34.2725 20.5523 34.2987C20.6836 34.325 20.7754 34.3775 20.8279 34.4562C20.8804 34.5087 20.8673 34.6137 20.7886 34.7712C20.6573 34.7449 20.5129 34.7581 20.3555 34.8106C20.2242 34.8631 20.093 34.8893 19.9617 34.8893C19.6205 34.8368 19.3974 34.8499 19.2924 34.9287C19.2137 34.9812 19.1087 35.0206 18.9774 35.0468C18.9512 35.3618 18.9249 35.6899 18.8987 36.0311C18.8724 36.3461 18.7149 36.5429 18.4262 36.6217C18.2162 36.4905 18.1112 36.2673 18.1112 35.9524C18.1112 35.6374 18.1112 35.3749 18.1112 35.1649C18.1375 34.7974 18.2687 34.5481 18.505 34.4168C18.7412 34.2594 19.043 34.1937 19.4105 34.22L19.6861 34.2987ZM3.46476 42.685C3.75349 42.895 4.02909 43.1181 4.29158 43.3544C4.55406 43.5906 4.86904 43.7874 5.23651 43.9449C5.02652 44.1024 4.84279 44.2074 4.6853 44.2599C4.55406 44.3124 4.40969 44.3255 4.2522 44.2993C4.01597 44.2993 3.79286 44.2337 3.58288 44.1024C3.37289 43.9974 3.22853 43.8662 3.14978 43.7087C3.04479 43.3937 2.9398 43.1706 2.8348 43.0394C2.75606 42.9344 2.71669 42.7638 2.71669 42.5275C2.71669 42.37 2.74293 42.1863 2.79543 41.9763C2.87417 41.7401 2.92667 41.517 2.95292 41.307C2.97917 41.0183 2.96604 40.7558 2.91355 40.5195C2.8873 40.2571 2.9398 40.034 3.07104 39.8502C3.25477 39.824 3.42539 39.8896 3.58288 40.0471C3.71412 40.2308 3.74036 40.4539 3.66162 40.7164C3.60912 40.9789 3.56975 41.2282 3.5435 41.4645C3.38601 41.5957 3.32039 41.7795 3.34664 42.0157C3.37289 42.2519 3.41226 42.475 3.46476 42.685ZM39.7266 42.8819C39.7529 42.9869 39.7791 43.0787 39.8054 43.1575C39.8578 43.2362 39.8578 43.3412 39.8054 43.4725C39.7529 43.6037 39.6216 43.7218 39.4116 43.8268C39.2279 43.9581 39.0573 44.0368 38.8998 44.0631C38.7948 44.0893 38.7029 44.0893 38.6242 44.0631C38.5454 44.0631 38.4667 44.0762 38.388 44.1024C38.0467 44.1812 37.7711 44.2599 37.5611 44.3387C37.3511 44.4436 37.0624 44.5224 36.6949 44.5749C36.5375 44.6011 36.38 44.6011 36.2225 44.5749C36.0912 44.5486 35.9075 44.5093 35.6713 44.4568L35.2382 44.2993C35.2119 44.5093 35.1069 44.6668 34.9232 44.7718C34.7657 44.903 34.5688 44.9161 34.3326 44.8111C34.1489 44.6011 34.1095 44.3649 34.2145 44.1024C34.3457 43.8399 34.5951 43.7874 34.9626 43.9449C35.1201 43.8924 35.2775 43.8662 35.435 43.8662C35.5925 43.8662 35.7631 43.8399 35.9469 43.7874C36.2618 43.7087 36.4587 43.6693 36.5375 43.6693C36.6162 43.6956 36.6949 43.6956 36.7737 43.6693C37.0362 43.6431 37.1805 43.6431 37.2068 43.6693C37.2593 43.6956 37.3118 43.7087 37.3643 43.7087C37.7317 43.5775 37.9942 43.4987 38.1517 43.4725C38.3092 43.4462 38.4536 43.3937 38.5848 43.315C38.6373 43.1575 38.6898 43.0262 38.7423 42.9213C38.821 42.8163 38.8735 42.6719 38.8998 42.4882C38.8998 42.2519 38.8473 42.0157 38.7423 41.7795C38.6636 41.5432 38.6767 41.3201 38.7817 41.1101C38.9917 41.0051 39.1229 41.0708 39.1754 41.307C39.2541 41.517 39.3329 41.7401 39.4116 41.9763C39.5691 42.1863 39.6741 42.37 39.7266 42.5275V42.8819ZM18.2294 42.2126C18.2031 42.0026 18.2687 41.9107 18.4262 41.9369C18.61 41.9369 18.7281 41.9894 18.7806 42.0944C18.7806 42.4619 18.6756 42.7506 18.4656 42.9606C18.2819 43.1706 18.0456 43.3281 17.7569 43.4331C17.4944 43.4593 17.3238 43.4987 17.245 43.5512C17.1663 43.63 17.1007 43.6693 17.0482 43.6693C16.9694 43.6693 16.9038 43.63 16.8513 43.5512C16.7988 43.4987 16.7463 43.4462 16.6938 43.3937C16.8776 43.0262 17.0613 42.7769 17.245 42.6456C17.3763 42.5407 17.5338 42.475 17.7175 42.4488C17.9275 42.4225 18.0981 42.3438 18.2294 42.2126ZM9.01625 42.5669C8.80626 42.5407 8.57003 42.5407 8.30755 42.5669C8.04506 42.5669 7.76946 42.5538 7.48073 42.5275C7.9532 42.8425 8.49128 42.9213 9.09499 42.7638L9.01625 42.5669Z" fill="#283A77"/>
</g>
<defs>
<filter id="filter0_d_7_6" x="12.3592" y="30.2802" width="50.3506" height="35.9797" filterUnits="userSpaceOnUse" color-interpolation-filters="sRGB">
<feFlood flood-opacity="0" result="BackgroundImageFix"/>
<feColorMatrix in="SourceAlpha" type="matrix" values="0 0 0 0 0 0 0 0 0 0 0 0 0 0 0 0 0 0 127 0" result="hardAlpha"/>
<feOffset dy="0.862927"/>
<feGaussianBlur stdDeviation="0.431463"/>
<feComposite in2="hardAlpha" operator="out"/>
<feColorMatrix type="matrix" values="0 0 0 0 0.156863 0 0 0 0 0.227451 0 0 0 0 0.466667 0 0 0 1 0"/>
<feBlend mode="normal" in2="BackgroundImageFix" result="effect1_dropShadow_7_6"/>
<feBlend mode="normal" in="SourceGraphic" in2="effect1_dropShadow_7_6" result="shape"/>
</filter>
<filter id="filter1_d_7_6" x="0.9482" y="12.644" width="40.5863" height="34.0505" filterUnits="userSpaceOnUse" color-interpolation-filters="sRGB">
<feFlood flood-opacity="0" result="BackgroundImageFix"/>
<feColorMatrix in="SourceAlpha" type="matrix" values="0 0 0 0 0 0 0 0 0 0 0 0 0 0 0 0 0 0 127 0" result="hardAlpha"/>
<feOffset dy="0.862927"/>
<feGaussianBlur stdDeviation="0.431463"/>
<feComposite in2="hardAlpha" operator="out"/>
<feColorMatrix type="matrix" values="0 0 0 0 0.878431 0 0 0 0 0.905882 0 0 0 0 0.972549 0 0 0 1 0"/>
<feBlend mode="normal" in2="BackgroundImageFix" result="effect1_dropShadow_7_6"/>
<feBlend mode="normal" in="SourceGraphic" in2="effect1_dropShadow_7_6" result="shape"/>
</filter>
</defs>
</svg>
